<mxfile host="app.diagrams.net" modified="2023-09-26T05:43:26.938Z" agent="Mozilla/5.0 (Windows NT 10.0; Win64; x64) AppleWebKit/537.36 (KHTML, like Gecko) Chrome/116.0.0.0 Safari/537.36" etag="KR9CnkFBPlLxLsKDNdDw" version="21.7.5" type="github" pages="2">
  <diagram name="Page-1" id="2YBvvXClWsGukQMizWep">
    <mxGraphModel dx="2074" dy="1110" grid="1" gridSize="10" guides="1" tooltips="1" connect="1" arrows="1" fold="1" page="1" pageScale="1" pageWidth="850" pageHeight="1100" math="0" shadow="0">
      <root>
        <mxCell id="0" />
        <mxCell id="1" parent="0" />
        <mxCell id="aM9ryv3xv72pqoxQDRHE-1" value="Azure Function&lt;br&gt;AutoProvisioning" style="shape=umlLifeline;perimeter=lifelinePerimeter;whiteSpace=wrap;html=1;container=0;dropTarget=0;collapsible=0;recursiveResize=0;outlineConnect=0;portConstraint=eastwest;newEdgeStyle={&quot;edgeStyle&quot;:&quot;elbowEdgeStyle&quot;,&quot;elbow&quot;:&quot;vertical&quot;,&quot;curved&quot;:0,&quot;rounded&quot;:0};fillColor=#dae8fc;strokeColor=#6c8ebf;" parent="1" vertex="1">
          <mxGeometry x="71" y="40" width="100" height="420" as="geometry" />
        </mxCell>
        <mxCell id="aM9ryv3xv72pqoxQDRHE-2" value="" style="html=1;points=[];perimeter=orthogonalPerimeter;outlineConnect=0;targetShapes=umlLifeline;portConstraint=eastwest;newEdgeStyle={&quot;edgeStyle&quot;:&quot;elbowEdgeStyle&quot;,&quot;elbow&quot;:&quot;vertical&quot;,&quot;curved&quot;:0,&quot;rounded&quot;:0};fillColor=#dae8fc;strokeColor=#6c8ebf;" parent="aM9ryv3xv72pqoxQDRHE-1" vertex="1">
          <mxGeometry x="45" y="70" width="10" height="40" as="geometry" />
        </mxCell>
        <mxCell id="aM9ryv3xv72pqoxQDRHE-3" value="every hour" style="html=1;verticalAlign=bottom;startArrow=oval;endArrow=block;startSize=8;edgeStyle=elbowEdgeStyle;elbow=vertical;curved=0;rounded=0;" parent="aM9ryv3xv72pqoxQDRHE-1" target="aM9ryv3xv72pqoxQDRHE-2" edge="1">
          <mxGeometry relative="1" as="geometry">
            <mxPoint x="-15" y="70" as="sourcePoint" />
          </mxGeometry>
        </mxCell>
        <mxCell id="b4lbpdpAouATNFra2iNW-19" value="" style="html=1;points=[];perimeter=orthogonalPerimeter;outlineConnect=0;targetShapes=umlLifeline;portConstraint=eastwest;newEdgeStyle={&quot;edgeStyle&quot;:&quot;elbowEdgeStyle&quot;,&quot;elbow&quot;:&quot;vertical&quot;,&quot;curved&quot;:0,&quot;rounded&quot;:0};fillColor=#dae8fc;strokeColor=#6c8ebf;" parent="aM9ryv3xv72pqoxQDRHE-1" vertex="1">
          <mxGeometry x="45" y="261" width="10" height="40" as="geometry" />
        </mxCell>
        <mxCell id="b4lbpdpAouATNFra2iNW-20" value="" style="html=1;points=[];perimeter=orthogonalPerimeter;outlineConnect=0;targetShapes=umlLifeline;portConstraint=eastwest;newEdgeStyle={&quot;edgeStyle&quot;:&quot;elbowEdgeStyle&quot;,&quot;elbow&quot;:&quot;vertical&quot;,&quot;curved&quot;:0,&quot;rounded&quot;:0};fillColor=#dae8fc;strokeColor=#6c8ebf;" parent="aM9ryv3xv72pqoxQDRHE-1" vertex="1">
          <mxGeometry x="45" y="332" width="10" height="58" as="geometry" />
        </mxCell>
        <mxCell id="aM9ryv3xv72pqoxQDRHE-5" value="Cosmos" style="shape=umlLifeline;perimeter=lifelinePerimeter;whiteSpace=wrap;html=1;container=0;dropTarget=0;collapsible=0;recursiveResize=0;outlineConnect=0;portConstraint=eastwest;newEdgeStyle={&quot;edgeStyle&quot;:&quot;elbowEdgeStyle&quot;,&quot;elbow&quot;:&quot;vertical&quot;,&quot;curved&quot;:0,&quot;rounded&quot;:0};fillColor=#d5e8d4;strokeColor=#82b366;" parent="1" vertex="1">
          <mxGeometry x="273" y="40" width="100" height="420" as="geometry" />
        </mxCell>
        <mxCell id="aM9ryv3xv72pqoxQDRHE-6" value="" style="html=1;points=[];perimeter=orthogonalPerimeter;outlineConnect=0;targetShapes=umlLifeline;portConstraint=eastwest;newEdgeStyle={&quot;edgeStyle&quot;:&quot;elbowEdgeStyle&quot;,&quot;elbow&quot;:&quot;vertical&quot;,&quot;curved&quot;:0,&quot;rounded&quot;:0};fillColor=#d5e8d4;strokeColor=#82b366;" parent="aM9ryv3xv72pqoxQDRHE-5" vertex="1">
          <mxGeometry x="45" y="80" width="10" height="310" as="geometry" />
        </mxCell>
        <mxCell id="aM9ryv3xv72pqoxQDRHE-7" value="Get InProgress Tenants" style="html=1;verticalAlign=bottom;endArrow=block;edgeStyle=elbowEdgeStyle;elbow=vertical;curved=0;rounded=0;fillColor=#d5e8d4;strokeColor=#82b366;" parent="1" source="aM9ryv3xv72pqoxQDRHE-2" target="aM9ryv3xv72pqoxQDRHE-6" edge="1">
          <mxGeometry x="0.0028" relative="1" as="geometry">
            <mxPoint x="226" y="130" as="sourcePoint" />
            <Array as="points">
              <mxPoint x="211" y="120" />
            </Array>
            <mxPoint as="offset" />
          </mxGeometry>
        </mxCell>
        <mxCell id="aM9ryv3xv72pqoxQDRHE-9" value="List&amp;lt;MdcCustomer&amp;gt;" style="html=1;verticalAlign=bottom;endArrow=block;edgeStyle=elbowEdgeStyle;elbow=vertical;curved=0;rounded=0;fillColor=#d5e8d4;strokeColor=#82b366;" parent="1" source="aM9ryv3xv72pqoxQDRHE-6" target="aM9ryv3xv72pqoxQDRHE-2" edge="1">
          <mxGeometry relative="1" as="geometry">
            <mxPoint x="296" y="144" as="sourcePoint" />
            <Array as="points">
              <mxPoint x="221" y="144" />
            </Array>
            <mxPoint x="131" y="144" as="targetPoint" />
          </mxGeometry>
        </mxCell>
        <mxCell id="b4lbpdpAouATNFra2iNW-1" value="MTP" style="shape=umlLifeline;perimeter=lifelinePerimeter;whiteSpace=wrap;html=1;container=0;dropTarget=0;collapsible=0;recursiveResize=0;outlineConnect=0;portConstraint=eastwest;newEdgeStyle={&quot;edgeStyle&quot;:&quot;elbowEdgeStyle&quot;,&quot;elbow&quot;:&quot;vertical&quot;,&quot;curved&quot;:0,&quot;rounded&quot;:0};fillColor=#fff2cc;strokeColor=#d6b656;" parent="1" vertex="1">
          <mxGeometry x="466" y="40" width="100" height="410" as="geometry" />
        </mxCell>
        <mxCell id="b4lbpdpAouATNFra2iNW-2" value="" style="html=1;points=[];perimeter=orthogonalPerimeter;outlineConnect=0;targetShapes=umlLifeline;portConstraint=eastwest;newEdgeStyle={&quot;edgeStyle&quot;:&quot;elbowEdgeStyle&quot;,&quot;elbow&quot;:&quot;vertical&quot;,&quot;curved&quot;:0,&quot;rounded&quot;:0};fillColor=#fff2cc;strokeColor=#d6b656;" parent="b4lbpdpAouATNFra2iNW-1" vertex="1">
          <mxGeometry x="45" y="80" width="10" height="230" as="geometry" />
        </mxCell>
        <mxCell id="b4lbpdpAouATNFra2iNW-3" value="&amp;nbsp;for each InProgress tenant: GET Provisioning(tenantId)" style="html=1;verticalAlign=bottom;endArrow=block;edgeStyle=elbowEdgeStyle;elbow=vertical;curved=0;rounded=0;fillColor=#fff2cc;strokeColor=#d6b656;" parent="1" target="b4lbpdpAouATNFra2iNW-2" edge="1">
          <mxGeometry x="0.1979" y="-2" relative="1" as="geometry">
            <mxPoint x="126" y="178" as="sourcePoint" />
            <Array as="points">
              <mxPoint x="217" y="178" />
            </Array>
            <mxPoint x="486" y="178" as="targetPoint" />
            <mxPoint as="offset" />
          </mxGeometry>
        </mxCell>
        <mxCell id="b4lbpdpAouATNFra2iNW-4" value="200 OK {&quot;Provisioned&quot;}" style="html=1;verticalAlign=bottom;endArrow=block;edgeStyle=elbowEdgeStyle;elbow=vertical;curved=0;rounded=0;fillColor=#fff2cc;strokeColor=#d6b656;" parent="1" source="b4lbpdpAouATNFra2iNW-2" target="aM9ryv3xv72pqoxQDRHE-4" edge="1">
          <mxGeometry x="-0.4556" y="1" relative="1" as="geometry">
            <mxPoint x="486" y="199" as="sourcePoint" />
            <Array as="points">
              <mxPoint x="227" y="199" />
            </Array>
            <mxPoint x="131" y="200" as="targetPoint" />
            <mxPoint as="offset" />
          </mxGeometry>
        </mxCell>
        <mxCell id="b4lbpdpAouATNFra2iNW-7" value="for each tenant: POST Provisioning(tenantId)" style="html=1;verticalAlign=bottom;endArrow=block;edgeStyle=elbowEdgeStyle;elbow=vertical;curved=0;rounded=0;fillColor=#fff2cc;strokeColor=#d6b656;" parent="1" target="b4lbpdpAouATNFra2iNW-2" edge="1">
          <mxGeometry x="0.3714" y="-1" relative="1" as="geometry">
            <mxPoint x="126" y="309" as="sourcePoint" />
            <Array as="points">
              <mxPoint x="217" y="309" />
            </Array>
            <mxPoint x="500" y="309" as="targetPoint" />
            <mxPoint as="offset" />
          </mxGeometry>
        </mxCell>
        <mxCell id="b4lbpdpAouATNFra2iNW-8" value="200 OK {&quot;InProgress&quot;}" style="html=1;verticalAlign=bottom;endArrow=block;edgeStyle=elbowEdgeStyle;elbow=vertical;curved=0;rounded=0;fillColor=#fff2cc;strokeColor=#d6b656;" parent="1" edge="1">
          <mxGeometry x="-0.5278" y="-2" relative="1" as="geometry">
            <mxPoint x="510" y="331" as="sourcePoint" />
            <Array as="points">
              <mxPoint x="227" y="331" />
            </Array>
            <mxPoint x="126" y="331" as="targetPoint" />
            <mxPoint as="offset" />
          </mxGeometry>
        </mxCell>
        <mxCell id="b4lbpdpAouATNFra2iNW-9" value="Update tenants (status=InProgress)" style="html=1;verticalAlign=bottom;endArrow=block;edgeStyle=elbowEdgeStyle;elbow=vertical;curved=0;rounded=0;fillColor=#d5e8d4;strokeColor=#82b366;" parent="1" edge="1">
          <mxGeometry x="0.0028" relative="1" as="geometry">
            <mxPoint x="126" y="360" as="sourcePoint" />
            <Array as="points">
              <mxPoint x="216" y="360" />
            </Array>
            <mxPoint x="318" y="360" as="targetPoint" />
            <mxPoint as="offset" />
          </mxGeometry>
        </mxCell>
        <mxCell id="aM9ryv3xv72pqoxQDRHE-4" value="" style="html=1;points=[];perimeter=orthogonalPerimeter;outlineConnect=0;targetShapes=umlLifeline;portConstraint=eastwest;newEdgeStyle={&quot;edgeStyle&quot;:&quot;elbowEdgeStyle&quot;,&quot;elbow&quot;:&quot;vertical&quot;,&quot;curved&quot;:0,&quot;rounded&quot;:0};fillColor=#dae8fc;strokeColor=#6c8ebf;" parent="1" vertex="1">
          <mxGeometry x="116" y="160" width="10" height="50" as="geometry" />
        </mxCell>
        <mxCell id="b4lbpdpAouATNFra2iNW-11" value="" style="html=1;points=[];perimeter=orthogonalPerimeter;outlineConnect=0;targetShapes=umlLifeline;portConstraint=eastwest;newEdgeStyle={&quot;edgeStyle&quot;:&quot;elbowEdgeStyle&quot;,&quot;elbow&quot;:&quot;vertical&quot;,&quot;curved&quot;:0,&quot;rounded&quot;:0};fillColor=#dae8fc;strokeColor=#6c8ebf;" parent="1" vertex="1">
          <mxGeometry x="116" y="220" width="10" height="70" as="geometry" />
        </mxCell>
        <mxCell id="b4lbpdpAouATNFra2iNW-12" value="Get 200 NotProvisioned Tenants" style="html=1;verticalAlign=bottom;endArrow=block;edgeStyle=elbowEdgeStyle;elbow=vertical;curved=0;rounded=0;fillColor=#d5e8d4;strokeColor=#82b366;" parent="1" edge="1">
          <mxGeometry x="0.0028" relative="1" as="geometry">
            <mxPoint x="127" y="267" as="sourcePoint" />
            <Array as="points">
              <mxPoint x="212" y="267" />
            </Array>
            <mxPoint x="319" y="267" as="targetPoint" />
            <mxPoint as="offset" />
          </mxGeometry>
        </mxCell>
        <mxCell id="b4lbpdpAouATNFra2iNW-13" value="List&amp;lt;MdcCustomer&amp;gt;" style="html=1;verticalAlign=bottom;endArrow=block;edgeStyle=elbowEdgeStyle;elbow=vertical;curved=0;rounded=0;fillColor=#d5e8d4;strokeColor=#82b366;" parent="1" edge="1">
          <mxGeometry relative="1" as="geometry">
            <mxPoint x="318" y="286" as="sourcePoint" />
            <Array as="points">
              <mxPoint x="231" y="286" />
            </Array>
            <mxPoint x="126" y="286" as="targetPoint" />
          </mxGeometry>
        </mxCell>
        <mxCell id="b4lbpdpAouATNFra2iNW-14" value="" style="html=1;points=[];perimeter=orthogonalPerimeter;outlineConnect=0;targetShapes=umlLifeline;portConstraint=eastwest;newEdgeStyle={&quot;edgeStyle&quot;:&quot;elbowEdgeStyle&quot;,&quot;elbow&quot;:&quot;vertical&quot;,&quot;curved&quot;:0,&quot;rounded&quot;:0};fillColor=#dae8fc;strokeColor=#6c8ebf;" parent="1" vertex="1">
          <mxGeometry x="116" y="349" width="10" height="17" as="geometry" />
        </mxCell>
        <mxCell id="b4lbpdpAouATNFra2iNW-16" value="" style="curved=1;endArrow=classic;html=1;rounded=0;" parent="1" edge="1">
          <mxGeometry width="50" height="50" relative="1" as="geometry">
            <mxPoint x="116" y="401" as="sourcePoint" />
            <mxPoint x="116" y="381" as="targetPoint" />
            <Array as="points">
              <mxPoint x="106" y="411" />
              <mxPoint x="76" y="381" />
            </Array>
          </mxGeometry>
        </mxCell>
        <mxCell id="b4lbpdpAouATNFra2iNW-17" value="&lt;font style=&quot;font-size: 10px;&quot;&gt;Polling if &lt;br&gt;provisioning ended&lt;/font&gt;" style="edgeLabel;html=1;align=center;verticalAlign=middle;resizable=0;points=[];" parent="b4lbpdpAouATNFra2iNW-16" vertex="1" connectable="0">
          <mxGeometry x="-0.1827" y="-4" relative="1" as="geometry">
            <mxPoint x="-40" y="1" as="offset" />
          </mxGeometry>
        </mxCell>
        <mxCell id="b4lbpdpAouATNFra2iNW-18" value="Set tenants status to Provisioned" style="html=1;verticalAlign=bottom;endArrow=block;edgeStyle=elbowEdgeStyle;elbow=vertical;curved=0;rounded=0;fillColor=#d5e8d4;strokeColor=#82b366;" parent="1" edge="1">
          <mxGeometry x="0.0028" relative="1" as="geometry">
            <mxPoint x="126" y="232" as="sourcePoint" />
            <Array as="points">
              <mxPoint x="211" y="232" />
            </Array>
            <mxPoint x="318" y="232" as="targetPoint" />
            <mxPoint as="offset" />
          </mxGeometry>
        </mxCell>
        <mxCell id="b4lbpdpAouATNFra2iNW-21" value="Update tenants (status=Provisioned)" style="html=1;verticalAlign=bottom;endArrow=block;edgeStyle=elbowEdgeStyle;elbow=vertical;curved=0;rounded=0;fillColor=#d5e8d4;strokeColor=#82b366;" parent="1" edge="1">
          <mxGeometry x="0.0028" relative="1" as="geometry">
            <mxPoint x="126" y="410" as="sourcePoint" />
            <Array as="points">
              <mxPoint x="216" y="410" />
            </Array>
            <mxPoint x="318" y="410" as="targetPoint" />
            <mxPoint as="offset" />
          </mxGeometry>
        </mxCell>
      </root>
    </mxGraphModel>
  </diagram>
  <diagram id="FLXgtTnk6XGDQVFKjpVH" name="Page-2">
    <mxGraphModel dx="1430" dy="766" grid="1" gridSize="10" guides="1" tooltips="1" connect="1" arrows="1" fold="1" page="1" pageScale="1" pageWidth="850" pageHeight="1100" math="0" shadow="0">
      <root>
        <mxCell id="0" />
        <mxCell id="1" parent="0" />
        <mxCell id="_qo7cVIRxFELI1Txun5--12" value="" style="rounded=0;whiteSpace=wrap;html=1;fillColor=none;dashed=1;" vertex="1" parent="1">
          <mxGeometry x="270" y="38" width="330" height="392" as="geometry" />
        </mxCell>
        <mxCell id="_qo7cVIRxFELI1Txun5--7" style="edgeStyle=orthogonalEdgeStyle;rounded=0;orthogonalLoop=1;jettySize=auto;html=1;exitX=1;exitY=0.5;exitDx=0;exitDy=0;entryX=0;entryY=0.5;entryDx=0;entryDy=0;" edge="1" parent="1" source="_qo7cVIRxFELI1Txun5--1" target="_qo7cVIRxFELI1Txun5--2">
          <mxGeometry relative="1" as="geometry" />
        </mxCell>
        <mxCell id="_qo7cVIRxFELI1Txun5--8" style="edgeStyle=orthogonalEdgeStyle;rounded=0;orthogonalLoop=1;jettySize=auto;html=1;exitX=1;exitY=0.5;exitDx=0;exitDy=0;" edge="1" parent="1" source="_qo7cVIRxFELI1Txun5--1" target="_qo7cVIRxFELI1Txun5--3">
          <mxGeometry relative="1" as="geometry">
            <Array as="points">
              <mxPoint x="440" y="150" />
              <mxPoint x="440" y="130" />
            </Array>
          </mxGeometry>
        </mxCell>
        <mxCell id="_qo7cVIRxFELI1Txun5--9" style="edgeStyle=orthogonalEdgeStyle;rounded=0;orthogonalLoop=1;jettySize=auto;html=1;exitX=1;exitY=0.5;exitDx=0;exitDy=0;entryX=0;entryY=0.5;entryDx=0;entryDy=0;" edge="1" parent="1" source="_qo7cVIRxFELI1Txun5--1" target="_qo7cVIRxFELI1Txun5--4">
          <mxGeometry relative="1" as="geometry" />
        </mxCell>
        <mxCell id="_qo7cVIRxFELI1Txun5--1" value="M365D" style="whiteSpace=wrap;html=1;aspect=fixed;" vertex="1" parent="1">
          <mxGeometry x="320" y="110" width="80" height="80" as="geometry" />
        </mxCell>
        <mxCell id="_qo7cVIRxFELI1Txun5--2" value="MDO" style="whiteSpace=wrap;html=1;aspect=fixed;fillColor=#d5e8d4;strokeColor=#82b366;" vertex="1" parent="1">
          <mxGeometry x="480" y="50" width="50" height="50" as="geometry" />
        </mxCell>
        <mxCell id="_qo7cVIRxFELI1Txun5--18" style="edgeStyle=orthogonalEdgeStyle;rounded=0;orthogonalLoop=1;jettySize=auto;html=1;exitX=1;exitY=0.5;exitDx=0;exitDy=0;entryX=1;entryY=0.5;entryDx=0;entryDy=0;" edge="1" parent="1" source="_qo7cVIRxFELI1Txun5--3" target="_qo7cVIRxFELI1Txun5--10">
          <mxGeometry relative="1" as="geometry">
            <Array as="points">
              <mxPoint x="570" y="135" />
              <mxPoint x="570" y="370" />
            </Array>
          </mxGeometry>
        </mxCell>
        <mxCell id="_qo7cVIRxFELI1Txun5--3" value="MDE" style="whiteSpace=wrap;html=1;aspect=fixed;fillColor=#fff2cc;strokeColor=#d6b656;" vertex="1" parent="1">
          <mxGeometry x="480" y="110" width="50" height="50" as="geometry" />
        </mxCell>
        <mxCell id="_qo7cVIRxFELI1Txun5--4" value="MDC" style="whiteSpace=wrap;html=1;aspect=fixed;fillColor=#f8cecc;strokeColor=#b85450;" vertex="1" parent="1">
          <mxGeometry x="480" y="219" width="50" height="50" as="geometry" />
        </mxCell>
        <mxCell id="_qo7cVIRxFELI1Txun5--6" value="" style="endArrow=none;dashed=1;html=1;dashPattern=1 3;strokeWidth=2;rounded=0;" edge="1" parent="1">
          <mxGeometry width="50" height="50" relative="1" as="geometry">
            <mxPoint x="504.66" y="208" as="sourcePoint" />
            <mxPoint x="504.66" y="168" as="targetPoint" />
          </mxGeometry>
        </mxCell>
        <mxCell id="_qo7cVIRxFELI1Txun5--11" style="edgeStyle=orthogonalEdgeStyle;rounded=0;orthogonalLoop=1;jettySize=auto;html=1;exitX=0.5;exitY=0;exitDx=0;exitDy=0;" edge="1" parent="1" source="_qo7cVIRxFELI1Txun5--10" target="_qo7cVIRxFELI1Txun5--1">
          <mxGeometry relative="1" as="geometry" />
        </mxCell>
        <mxCell id="_qo7cVIRxFELI1Txun5--10" value="MDE" style="whiteSpace=wrap;html=1;aspect=fixed;fillColor=#fff2cc;strokeColor=#d6b656;" vertex="1" parent="1">
          <mxGeometry x="320" y="330" width="80" height="80" as="geometry" />
        </mxCell>
        <mxCell id="_qo7cVIRxFELI1Txun5--13" value="M365D" style="text;html=1;align=center;verticalAlign=middle;resizable=0;points=[];autosize=1;strokeColor=none;fillColor=none;" vertex="1" parent="1">
          <mxGeometry x="400" y="6" width="60" height="30" as="geometry" />
        </mxCell>
        <mxCell id="_qo7cVIRxFELI1Txun5--15" style="edgeStyle=orthogonalEdgeStyle;rounded=0;orthogonalLoop=1;jettySize=auto;html=1;exitX=1;exitY=0.5;exitDx=0;exitDy=0;entryX=0;entryY=0.5;entryDx=0;entryDy=0;" edge="1" parent="1" source="_qo7cVIRxFELI1Txun5--14" target="_qo7cVIRxFELI1Txun5--1">
          <mxGeometry relative="1" as="geometry" />
        </mxCell>
        <mxCell id="_qo7cVIRxFELI1Txun5--14" value="Auto provisioning API" style="whiteSpace=wrap;html=1;aspect=fixed;fillColor=#f8cecc;strokeColor=#b85450;" vertex="1" parent="1">
          <mxGeometry x="100" y="110" width="80" height="80" as="geometry" />
        </mxCell>
        <mxCell id="_qo7cVIRxFELI1Txun5--17" style="edgeStyle=orthogonalEdgeStyle;rounded=0;orthogonalLoop=1;jettySize=auto;html=1;exitX=1;exitY=0.5;exitDx=0;exitDy=0;entryX=0;entryY=0.5;entryDx=0;entryDy=0;" edge="1" parent="1" source="_qo7cVIRxFELI1Txun5--16" target="_qo7cVIRxFELI1Txun5--10">
          <mxGeometry relative="1" as="geometry" />
        </mxCell>
        <mxCell id="_qo7cVIRxFELI1Txun5--16" value="Defender for Servers license API" style="whiteSpace=wrap;html=1;aspect=fixed;fillColor=#fff2cc;strokeColor=#d6b656;" vertex="1" parent="1">
          <mxGeometry x="90" y="330" width="80" height="80" as="geometry" />
        </mxCell>
      </root>
    </mxGraphModel>
  </diagram>
</mxfile>
